<?xml version="1.0" standalone="no"?>
<!DOCTYPE svg PUBLIC "-//W3C//DTD SVG 20010904//EN"
 "http://www.w3.org/TR/2001/REC-SVG-20010904/DTD/svg10.dtd">
<svg version="1.0" xmlns="http://www.w3.org/2000/svg"
 width="512.000000pt" height="512.000000pt" viewBox="0 0 512.000000 512.000000"
 preserveAspectRatio="xMidYMid meet">

<g transform="translate(0.000000,512.000000) scale(0.100000,-0.100000)"
fill="#000000" stroke="none">
<path d="M2375 5114 c-16 -2 -73 -9 -125 -15 -460 -51 -927 -249 -1299 -549
-113 -92 -313 -293 -399 -403 -281 -356 -455 -765 -529 -1237 -25 -161 -25
-539 0 -700 72 -459 229 -838 501 -1200 90 -121 303 -340 427 -440 366 -294
786 -476 1264 -547 167 -24 523 -24 690 0 455 68 841 228 1205 501 121 90 340
303 440 427 293 364 472 775 547 1259 25 161 25 539 0 700 -72 459 -229 838
-501 1200 -90 121 -303 340 -427 440 -359 289 -772 470 -1234 541 -123 19
-483 34 -560 23z m360 -779 c268 -57 492 -242 603 -497 45 -106 64 -203 64
-333 0 -239 -86 -441 -260 -607 -138 -132 -301 -209 -488 -231 -461 -54 -887
289 -933 752 -23 222 42 444 180 617 119 150 292 258 480 299 85 18 267 18
354 0z m530 -2113 c250 -69 441 -225 550 -447 69 -142 89 -221 88 -355 0 -163
-39 -238 -180 -347 -449 -346 -998 -475 -1546 -362 -232 48 -441 134 -646 266
-260 168 -329 271 -317 473 12 202 87 374 227 524 134 143 311 236 504 265 33
5 326 8 650 7 576 -2 592 -2 670 -24z"/>
</g>
</svg>
